<?xml version="1.0" encoding="UTF-8" standalone="no"?>
<svg
   xmlns:dc="http://purl.org/dc/elements/1.1/"
   xmlns:cc="http://creativecommons.org/ns#"
   xmlns:rdf="http://www.w3.org/1999/02/22-rdf-syntax-ns#"
   xmlns:svg="http://www.w3.org/2000/svg"
   xmlns="http://www.w3.org/2000/svg"
   xmlns:sodipodi="http://sodipodi.sourceforge.net/DTD/sodipodi-0.dtd"
   xmlns:inkscape="http://www.inkscape.org/namespaces/inkscape"
   version="1.1"
   x="0px"
   y="0px"
   viewBox="0 0 100 100"
   style="enable-background:new 0 0 100 100;"
   xml:space="preserve"
   id="svg1181"
   sodipodi:docname="noDrink.svg"
   inkscape:version="0.92.2 5c3e80d, 2017-08-06"><metadata
     id="metadata1187"><rdf:RDF><cc:Work
         rdf:about=""><dc:format>image/svg+xml</dc:format><dc:type
           rdf:resource="http://purl.org/dc/dcmitype/StillImage" /><dc:title></dc:title></cc:Work></rdf:RDF></metadata><defs
     id="defs1185" /><sodipodi:namedview
     pagecolor="#ffffff"
     bordercolor="#666666"
     borderopacity="1"
     objecttolerance="10"
     gridtolerance="10"
     guidetolerance="10"
     inkscape:pageopacity="0"
     inkscape:pageshadow="2"
     inkscape:window-width="1549"
     inkscape:window-height="869"
     id="namedview1183"
     showgrid="false"
     inkscape:zoom="6.675088"
     inkscape:cx="71.063836"
     inkscape:cy="53.188036"
     inkscape:window-x="153"
     inkscape:window-y="0"
     inkscape:window-maximized="0"
     inkscape:current-layer="g1752" /><style
     type="text/css"
     id="style1163">
	.st0{fill:none;stroke:#000000;stroke-width:2;stroke-linecap:round;stroke-linejoin:round;stroke-miterlimit:10;}
	.st1{fill:none;stroke:#000000;stroke-width:2;stroke-miterlimit:10;}
	.st2{fill:none;stroke:#000000;stroke-width:1.8;stroke-linecap:round;stroke-linejoin:round;stroke-miterlimit:10;}
	.st3{fill:none;stroke:#000000;stroke-width:1.6;stroke-linecap:round;stroke-linejoin:round;stroke-miterlimit:10;}
</style><g
     id="g1752"><g
       id="g1794"><g
         transform="translate(-0.74905379,-3.2958367)"
         id="g1759"><g
           style="fill:#502d16;fill-opacity:1"
           transform="translate(-18.276913,-4.6441335)"
           id="g1733"><path
             style="fill:#502d16;fill-opacity:1"
             d="m 62.3,16 v 1.7 c -1.1,0.2 -2,1.2 -2,2.3 v 5.4 c 0,1.2 0.9,2.2 2,2.3 v 4.4 C 53.1,34.7 46.8,43 46.8,52.6 v 20.3 c 0,7.8 6.3,14.1 14.1,14.1 h 14 C 82.7,87 89,80.7 89,72.9 V 52.6 C 89,43 82.6,34.8 73.4,32.3 v -4.4 c 1.1,-0.2 2,-1.2 2,-2.3 V 20 c 0,-1.2 -0.9,-2.2 -2,-2.3 V 16 c 0,-0.6 -0.4,-1 -1,-1 h -9 c -0.6,0 -1.1,0.4 -1.1,1 z M 86.9,52.6 V 72.9 C 86.9,79.6 81.5,85 74.8,85 h -14 C 54.1,85 48.7,79.6 48.7,72.9 V 52.6 C 48.7,43.7 54.8,36 63.5,34 64,33.9 64.3,33.5 64.3,33 v -5.2 h 7 V 33 c 0,0.5 0.3,0.9 0.8,1 8.7,2 14.8,9.6 14.8,18.6 z M 73.4,25.5 c 0,0.2 -0.2,0.4 -0.4,0.4 h -0.6 -9 -0.6 c -0.2,0 -0.4,-0.2 -0.4,-0.4 V 20 c 0,-0.2 0.2,-0.4 0.4,-0.4 H 73 c 0.2,0 0.4,0.2 0.4,0.4 z M 71.3,17 v 0.7 h -7 V 17 Z"
             id="path1177"
             inkscape:connector-curvature="0" /></g><path
           style="fill:#fffc24;fill-opacity:1"
           id="path1179"
           d="m 34.923087,54.605677 c 0,8.1 6.6,14.700001 14.7,14.700001 8.1,0 14.7,-6.600001 14.7,-14.700001 0,-8.1 -6.6,-14.7 -14.7,-14.7 -8.1,0 -14.7,6.6 -14.7,14.7 z m 27.3,0 c 0,7 -5.7,12.700001 -12.7,12.700001 -7,0 -12.6,-5.800001 -12.6,-12.700001 0,-6.9 5.7,-12.7 12.7,-12.7 7,0 12.6,5.7 12.6,12.7 z"
           inkscape:connector-curvature="0" /><text
           transform="scale(0.97764289,1.0228684)"
           id="text1742"
           y="56.039532"
           x="38.615242"
           style="font-style:normal;font-variant:normal;font-weight:bold;font-stretch:normal;font-size:9.24572182px;line-height:1.25;font-family:sans-serif;-inkscape-font-specification:'sans-serif, Bold';font-variant-ligatures:normal;font-variant-caps:normal;font-variant-numeric:normal;font-feature-settings:normal;text-align:start;letter-spacing:0px;word-spacing:0px;writing-mode:lr-tb;text-anchor:start;fill:#000000;fill-opacity:1;stroke:none;stroke-width:0.86678642px;stroke-linecap:butt;stroke-linejoin:miter;stroke-opacity:1"
           xml:space="preserve"><tspan
             style="stroke-width:0.86678642px"
             y="56.039532"
             x="38.615242"
             id="tspan1740"
             sodipodi:role="line">RUM</tspan></text>
</g><ellipse
         ry="36.104393"
         rx="39.849663"
         cy="50.41264"
         cx="48.239063"
         id="path1780"
         style="opacity:1;fill:none;fill-opacity:1;fill-rule:nonzero;stroke:#ff430f;stroke-width:1.89999998;stroke-linecap:square;stroke-linejoin:round;stroke-miterlimit:4;stroke-dasharray:none;stroke-opacity:1;paint-order:fill markers stroke" /><path
         inkscape:connector-curvature="0"
         id="path1784"
         d="M 21.422939,24.794999 77.302352,74.681982"
         style="fill:none;fill-rule:evenodd;stroke:#ff4614;stroke-width:1.9;stroke-linecap:butt;stroke-linejoin:miter;stroke-opacity:1;stroke-miterlimit:4;stroke-dasharray:none" /></g></g></svg>