<?xml version="1.0" encoding="UTF-8" standalone="no"?>
<!-- Created with Inkscape (http://www.inkscape.org/) -->

<svg
   xmlns:dc="http://purl.org/dc/elements/1.1/"
   xmlns:cc="http://creativecommons.org/ns#"
   xmlns:rdf="http://www.w3.org/1999/02/22-rdf-syntax-ns#"
   xmlns:svg="http://www.w3.org/2000/svg"
   xmlns="http://www.w3.org/2000/svg"
   xmlns:sodipodi="http://sodipodi.sourceforge.net/DTD/sodipodi-0.dtd"
   xmlns:inkscape="http://www.inkscape.org/namespaces/inkscape"
   width="793.70081"
   height="900"
   viewBox="0 0 210 238.12522"
   version="1.1"
   id="svg8"
   inkscape:version="0.92.2 5c3e80d, 2017-08-06"
   sodipodi:docname="pirate.svg">
  <defs
     id="defs2" />
  <sodipodi:namedview
     id="base"
     pagecolor="#ffffff"
     bordercolor="#666666"
     borderopacity="1.0"
     inkscape:pageopacity="0.0"
     inkscape:pageshadow="2"
     inkscape:zoom="0.70710678"
     inkscape:cx="530.24242"
     inkscape:cy="548.08284"
     inkscape:document-units="mm"
     inkscape:current-layer="layer1"
     showgrid="false"
     units="px"
     inkscape:snap-nodes="false"
     inkscape:snap-global="false"
     inkscape:window-width="1577"
     inkscape:window-height="949"
     inkscape:window-x="668"
     inkscape:window-y="0"
     inkscape:window-maximized="0" />
  <metadata
     id="metadata5">
    <rdf:RDF>
      <cc:Work
         rdf:about="">
        <dc:format>image/svg+xml</dc:format>
        <dc:type
           rdf:resource="http://purl.org/dc/dcmitype/StillImage" />
        <dc:title></dc:title>
      </cc:Work>
    </rdf:RDF>
  </metadata>
  <g
     inkscape:label="Layer 1"
     inkscape:groupmode="layer"
     id="layer1"
     transform="translate(0,-58.873927)">
    <g
       id="g1062"
       transform="translate(1.8708867,49.391409)">
      <ellipse
         ry="7.7216988"
         rx="6.0378995"
         cy="90.64119"
         cx="21.702284"
         id="path1002"
         style="opacity:1;fill:none;fill-opacity:0.98104266;fill-rule:nonzero;stroke:#fff941;stroke-width:1.51451993;stroke-linecap:square;stroke-linejoin:round;stroke-miterlimit:4;stroke-dasharray:none;stroke-opacity:1;paint-order:fill markers stroke" />
      <g
         transform="translate(-0.74835468,2.9934187)"
         id="g1035">
        <g
           id="g992"
           transform="translate(-2.6192414,-5.6126598)">
          <g
             transform="translate(3.7417734,-14.218739)"
             id="g961">
            <g
               id="g927"
               transform="translate(13.096207,-31.430896)">
              <g
                 transform="translate(-7.1093693,2.6192413)"
                 id="g889">
                <path
                   style="opacity:1;fill:#d45500;fill-opacity:0.98104266;fill-rule:nonzero;stroke:#ff0f44;stroke-width:1.06500006;stroke-linecap:square;stroke-linejoin:round;stroke-miterlimit:4;stroke-dasharray:none;stroke-opacity:0;paint-order:fill markers stroke"
                   d="m 157.90284,135.54248 c 0,35.64755 -29.367,87.37041 -66.977758,87.37041 -37.61073,0 -69.2228,-51.72286 -69.2228,-87.37041 0,-35.647552 30.48953,-64.545595 68.10027,-64.545595 37.610758,-1e-6 68.100288,28.898043 68.100288,64.545595"
                   id="path823"
                   inkscape:connector-curvature="0"
                   sodipodi:nodetypes="csssc" />
              </g>
              <path
                 inkscape:connector-curvature="0"
                 id="path828"
                 d="m 48.711113,127.22781 a 9.1673441,7.8577235 0 0 0 -1.564761,4.38578 9.1673441,7.8577235 0 0 0 9.167399,7.85792 9.1673441,7.8577235 0 0 0 9.167397,-7.85792 9.1673441,7.8577235 0 0 0 -0.0067,-0.16382 z"
                 style="opacity:1;fill:#0000ff;fill-opacity:0.98104266;fill-rule:nonzero;stroke:none;stroke-width:1.06500006;stroke-linecap:square;stroke-linejoin:round;stroke-miterlimit:4;stroke-dasharray:none;stroke-opacity:0.98104266;paint-order:fill markers stroke" />
              <path
                 style="opacity:1;fill:#0000ff;fill-opacity:0.98104266;fill-rule:nonzero;stroke:none;stroke-width:1.06500006;stroke-linecap:square;stroke-linejoin:round;stroke-miterlimit:4;stroke-dasharray:none;stroke-opacity:0.98104266;paint-order:fill markers stroke"
                 d="m 107.69514,126.47941 a 9.1673441,7.8577235 0 0 1 1.56476,4.38578 9.1673441,7.8577235 0 0 1 -9.1674,7.85792 9.1673441,7.8577235 0 0 1 -9.167398,-7.85792 9.1673441,7.8577235 0 0 1 0.007,-0.16382 z"
                 id="path886"
                 inkscape:connector-curvature="0" />
              <g
                 id="g893"
                 transform="translate(-7.1093693,2.6192413)">
                <path
                   sodipodi:nodetypes="csssc"
                   inkscape:connector-curvature="0"
                   id="path891"
                   d="m 157.90284,135.54248 c 0,35.64755 -29.367,87.37041 -66.977758,87.37041 -37.61073,0 -69.2228,-51.72286 -69.2228,-87.37041 0,-35.647552 3.860724,-9.37383 66.603561,-20.01849 41.007037,-6.95706 69.596997,-15.629062 69.596997,20.01849"
                   style="opacity:1;fill:#d4001d;fill-opacity:0.98104266;fill-rule:nonzero;stroke:#ff0f44;stroke-width:1.06500006;stroke-linecap:square;stroke-linejoin:round;stroke-miterlimit:4;stroke-dasharray:none;stroke-opacity:0;paint-order:fill markers stroke" />
              </g>
              <path
                 style="opacity:1;fill:#0000ff;fill-opacity:0.98104266;fill-rule:nonzero;stroke:none;stroke-width:1.06500006;stroke-linecap:square;stroke-linejoin:round;stroke-miterlimit:4;stroke-dasharray:none;stroke-opacity:0.98104266;paint-order:fill markers stroke"
                 d="m 43.47263,130.59541 c -1.018801,1.29602 4.049062,6.56478 4.047899,8.12755 -1.27e-4,4.3398 4.104304,7.85795 9.167399,7.85792 5.063095,3e-5 9.167524,-3.51812 9.167397,-7.85792 -0.0016,-0.0546 -0.0038,-0.10923 -0.0067,-0.16382 z"
                 id="path895"
                 inkscape:connector-curvature="0"
                 sodipodi:nodetypes="cccccc" />
              <path
                 inkscape:connector-curvature="0"
                 id="path897"
                 d="m 115.55287,133.96295 a 9.1673441,7.8577235 0 0 1 1.56476,4.38578 9.1673441,7.8577235 0 0 1 -9.1674,7.85792 9.1673441,7.8577235 0 0 1 -9.167404,-7.85792 9.1673441,7.8577235 0 0 1 0.007,-0.16382 z"
                 style="opacity:1;fill:#0000ff;fill-opacity:0.98104266;fill-rule:nonzero;stroke:none;stroke-width:1.06500006;stroke-linecap:square;stroke-linejoin:round;stroke-miterlimit:4;stroke-dasharray:none;stroke-opacity:0.98104266;paint-order:fill markers stroke" />
              <path
                 transform="scale(0.26458333)"
                 inkscape:connector-curvature="0"
                 id="path899"
                 d="M 299.01872,852.03035 C 221.68141,842.5092 145.65471,777.43694 95.906373,678.18382 65.625072,617.76947 52.836319,563.01282 54.784243,502.11424 c 0.894443,-27.96326 2.463165,-37.864 7.108665,-44.86522 1.690495,-2.54775 4.27519,-8.13244 5.743766,-12.41043 4.937946,-14.38435 17.803882,-39.99198 26.948245,-53.63626 38.562641,-57.5392 99.638551,-96.43414 172.611951,-109.92435 15.9046,-2.9402 57.68512,-4.08266 74.92969,-2.04889 90.4191,10.66371 165.52487,61.97383 204.11649,139.44655 14.17133,28.44901 22.35963,60.47819 23.86196,93.33809 3.37129,73.73905 -29.25899,168.58721 -82.22305,239.00209 -15.33175,20.3833 -43.43478,49.00361 -60.74176,61.85978 -40.46358,30.05763 -86.85504,44.23516 -128.12148,39.15475 z M 232.05388,550.08286 c 4.00587,-1.91991 8.92421,-5.64196 10.92965,-8.27121 3.42859,-4.49512 7.85402,-16.9996 6.46328,-18.26262 -0.3491,-0.31702 -14.92096,-4.21222 -32.38193,-8.65596 -35.46922,-9.02678 -33.75676,-9.11997 -36.84736,2.00509 -1.93248,6.95621 -1.76043,10.62729 0.784,16.72775 7.8411,18.79967 30.75363,26.18562 51.05236,16.45695 z m 193.74726,-1.41421 c 10.659,-5.1086 17.51247,-15.57023 17.43427,-26.6129 -0.0405,-5.71726 -5.07512,-16.75266 -7.37265,-16.16015 -0.98379,0.2537 -15.6303,3.94646 -32.54783,8.20613 -33.84585,8.52207 -32.83296,7.87993 -28.56615,18.10997 7.8411,18.79966 30.75363,26.18562 51.05236,16.45695 z"
                 style="opacity:1;fill:#d4001d;fill-opacity:0.98104266;fill-rule:nonzero;stroke:none;stroke-width:5.69248819;stroke-linecap:square;stroke-linejoin:round;stroke-miterlimit:4;stroke-dasharray:none;stroke-opacity:0.98104266;paint-order:fill markers stroke" />
              <path
                 transform="scale(0.26458333)"
                 inkscape:connector-curvature="0"
                 id="path903"
                 d="M 289.90185,851.3578 C 214.51251,837.11952 143.17874,773.6877 95.531865,678.51903 66.200618,619.93353 54.299146,571.76594 54.401398,512.05596 c 0.05824,-34.00982 1.408361,-43.38481 8.53674,-59.2776 3.179731,-7.08924 7.725834,-17.34429 10.102451,-22.78902 12.082882,-27.68133 27.487441,-50.87248 47.785181,-71.93928 33.74081,-35.01922 70.93204,-57.14287 118.98084,-70.77718 27.88646,-7.91304 33.79764,-8.60551 73.3522,-8.59282 33.84625,0.0109 37.15069,0.24634 53.77033,3.8318 102.81491,22.18089 178.52673,95.51128 199.46283,193.18895 3.78073,17.63908 5.19894,55.92269 2.84013,76.66718 -7.44791,65.50021 -35.1914,135.31557 -76.92504,193.57872 -13.34156,18.62579 -42.61977,49.62677 -60.23992,63.7845 -22.894,18.39527 -55.71851,34.4761 -82.13877,40.24002 -15.21348,3.319 -46.02596,4.03076 -60.02652,1.38657 z m -63.42281,-299.286 c 7.56864,-1.90976 17.01211,-9.95286 20.37277,-17.35173 5.10899,-11.24796 6.11741,-10.55248 -27.38464,-18.88678 -16.52862,-4.11182 -31.15106,-7.44883 -32.49431,-7.41557 -3.0998,0.0768 -6.27494,4.96742 -7.46775,11.50255 -2.69913,14.78794 10.37654,30.97947 27.23812,33.72883 7.00773,1.14264 9.85953,0.91472 19.73581,-1.5773 z m 193.74725,-1.41422 c 11.80751,-2.97931 22.93589,-16.49461 23.00912,-27.94431 0.0435,-6.81124 -5.24334,-17.36265 -8.25002,-16.46506 -1.27904,0.38184 -14.09886,3.60432 -28.48848,7.16108 -29.84234,7.37628 -33.94113,8.771 -33.94113,11.54936 0,3.70387 4.36769,12.48479 8.20676,16.49908 10.4915,10.97036 21.90348,13.63074 39.46375,9.19985 z"
                 style="opacity:1;fill:#c87137;fill-opacity:0.98104266;fill-rule:nonzero;stroke:none;stroke-width:5.69248819;stroke-linecap:square;stroke-linejoin:round;stroke-miterlimit:4;stroke-dasharray:none;stroke-opacity:0.98104266;paint-order:fill markers stroke" />
              <path
                 sodipodi:nodetypes="cc"
                 inkscape:connector-curvature="0"
                 id="path911"
                 d="m 14.592916,126.37512 c 81.650977,-48.418894 135.335824,1.38881 135.452194,1.49671"
                 style="fill:none;fill-rule:evenodd;stroke:#000000;stroke-width:0.26458332px;stroke-linecap:butt;stroke-linejoin:miter;stroke-opacity:1" />
              <path
                 transform="scale(0.26458333)"
                 inkscape:connector-curvature="0"
                 id="path913"
                 d="M 553.92537,471.36416 C 492.24118,424.97242 403.95251,396.49003 321.6264,396.42329 c -43.78738,-0.0355 -95.78904,8.37772 -141.22485,22.84841 -32.99013,10.50693 -81.015627,31.78477 -114.530061,50.74293 l -10.459721,5.91676 0.939135,-5.87302 c 0.974363,-6.09334 17.419324,-44.77008 25.126894,-59.0957 20.448813,-38.00704 56.240473,-75.24585 93.141253,-96.90719 16.92545,-9.93551 31.76201,-16.49869 53.74012,-23.77279 33.42529,-11.06277 39.71263,-11.92181 86.26702,-11.78663 l 40.30509,0.11704 21.92031,5.64894 c 57.10261,14.71553 106.66321,45.41133 139.76652,86.56564 24.25438,30.15325 39.37997,60.66198 49.03388,98.90264 1.24579,4.93481 2.07299,9.54441 1.83821,10.24354 -0.23479,0.69913 -6.33896,-3.17523 -13.56483,-8.6097 z"
                 style="opacity:1;fill:#ff071f;fill-opacity:0.98104266;fill-rule:nonzero;stroke:none;stroke-width:5.69248819;stroke-linecap:square;stroke-linejoin:round;stroke-miterlimit:4;stroke-dasharray:none;stroke-opacity:0.98104266;paint-order:fill markers stroke" />
            </g>
            <ellipse
               style="opacity:1;fill:#ff071f;fill-opacity:0.98104266;fill-rule:nonzero;stroke:none;stroke-width:1.06500006;stroke-linecap:square;stroke-linejoin:round;stroke-miterlimit:4;stroke-dasharray:none;stroke-opacity:0.98104266;paint-order:fill markers stroke"
               id="path929"
               cx="168.37979"
               cy="102.98904"
               rx="5.238482"
               ry="14.780005" />
            <path
               style="fill:#ff071f;fill-opacity:0.98104266;fill-rule:evenodd;stroke:none;stroke-width:0.26458332px;stroke-linecap:butt;stroke-linejoin:miter;stroke-opacity:1"
               d="m 164.82512,109.53714 -2.05797,9.16735 c 5.91524,9.20456 16.08289,17.10252 18.89595,27.12786 0.9303,-9.36398 -5.93259,-28.90385 -16.83798,-36.29521 z"
               id="path937"
               inkscape:connector-curvature="0"
               sodipodi:nodetypes="cccc" />
            <path
               sodipodi:nodetypes="cccc"
               inkscape:connector-curvature="0"
               id="path941"
               d="m 199.26121,128.90299 -7.57985,-1.91078 c -9.20456,-5.91524 -18.69002,-12.11414 -28.71536,-14.9272 9.36398,-0.9303 28.90385,5.93259 36.29521,16.83798 z"
               style="fill:#ff071f;fill-opacity:0.98104266;fill-rule:evenodd;stroke:none;stroke-width:0.26458332px;stroke-linecap:butt;stroke-linejoin:miter;stroke-opacity:1" />
          </g>
          <path
             d="M 96.804088,93.174838 A 20.956268,19.88998 0 0 1 70.18657,104.1858 20.956268,19.88998 0 0 1 57.526451,79.38487 l 19.930596,6.146342 z"
             sodipodi:end="3.4557519"
             sodipodi:start="0.39444441"
             sodipodi:ry="19.88998"
             sodipodi:rx="20.956268"
             sodipodi:cy="85.531212"
             sodipodi:cx="77.457047"
             sodipodi:type="arc"
             id="path965"
             style="opacity:1;fill:#270d0f;fill-opacity:0.98104266;fill-rule:nonzero;stroke:none;stroke-width:0.9058094;stroke-linecap:square;stroke-linejoin:round;stroke-miterlimit:4;stroke-dasharray:none;stroke-opacity:0.98104266;paint-order:fill markers stroke" />
          <path
             inkscape:connector-curvature="0"
             id="path971"
             d="M 44.901281,73.616121 163.14132,118.5174"
             style="fill:none;fill-rule:evenodd;stroke:#000000;stroke-width:1.36500001;stroke-linecap:butt;stroke-linejoin:miter;stroke-miterlimit:4;stroke-dasharray:none;stroke-opacity:1" />
        </g>
        <path
           style="opacity:1;fill:#270d0f;fill-opacity:0.98104266;fill-rule:nonzero;stroke:none;stroke-width:1.36500001;stroke-linecap:square;stroke-linejoin:round;stroke-miterlimit:4;stroke-dasharray:none;stroke-opacity:0.98104266;paint-order:fill markers stroke"
           id="path994"
           sodipodi:type="arc"
           sodipodi:cx="96.911926"
           sodipodi:cy="134.98119"
           sodipodi:rx="16.463802"
           sodipodi:ry="8.2319012"
           sodipodi:start="0.02443461"
           sodipodi:end="3.7129436"
           sodipodi:open="true"
           d="m 113.37081,135.18231 a 16.463802,8.2319012 0 0 1 -11.32904,7.62098 16.463802,8.2319012 0 0 1 -18.154751,-2.78701 16.463802,8.2319012 0 0 1 -0.823969,-9.48665" />
        <circle
           style="opacity:1;fill:none;fill-opacity:0.98104266;fill-rule:nonzero;stroke:#41ff4f;stroke-width:1.36500001;stroke-linecap:square;stroke-linejoin:round;stroke-miterlimit:4;stroke-dasharray:none;stroke-opacity:0;paint-order:fill markers stroke"
           id="path998"
           cx="48.268875"
           cy="186.61768"
           r="12.347852" />
        <path
           style="fill:#24270d;fill-opacity:0.98104266;fill-rule:evenodd;stroke:#000000;stroke-width:0.26458332px;stroke-linecap:butt;stroke-linejoin:miter;stroke-opacity:1"
           d="m 55.378247,153.31589 34.798491,19.45722 10.102782,1.12253 9.35444,-2.24506 7.48354,-4.49014 20.20558,-13.47037 c 11.10587,14.74854 -8.83216,34.51923 -13.84456,44.5271 L 114.49826,182.12754 100.6537,233.01567 87.183319,185.12096 73.712934,205.32654 C 65.543991,192.42514 47.685851,168.19996 55.378247,153.31589 Z"
           id="path1008"
           inkscape:connector-curvature="0"
           sodipodi:nodetypes="cccccccccccc" />
      </g>
    </g>
  </g>
</svg>
